:FULLY-SPECIFIED
:FORCE-ALL-JOINTS-BE-3DOF
:DEGREES
2242
root -0.718193 13.8226 -16.5776 -168.216 -26.5876 168.632
lfemur 11.4057 -1.35462 -15.3078
ltibia 32.0215 -0 0
lfoot -23.6466 36.7454 0.00150965
ltoes -43.9486 0 0
rfemur -72.2644 -23.74 9.16228
rtibia 74.1916 -0 0
rfoot -6.85959 14.2991 -0.00138918
rtoes 4.19214 -0 0
lowerback 9.37425 1.86534 -13.237
upperback -3.06771 0.454053 -2.01206
thorax -8.78875 0.800785 5.19648
lowerneck 0.921392 -12.081 -12.3656
upperneck 4.94281 -16.8113 10.2825
head 3.23105 -8.44318 4.34582
lclavicle -1.963e-015 2.9768e-014 0
lhumerus -69.5299 -17.8673 103.948
lradius 102.042 -0 0
lwrist 60.7909 0 0
lhand -11.6141 62.1605 -0.00683473
lfingers 7.12502 -0 0
lthumb 14.2585 -103.907 0.139996
rclavicle -1.963e-015 2.9768e-014 0
rhumerus 49.1099 -9.86473 -58.5813
rradius 16.9589 -0 0
rwrist 34.6115 0 0
rhand -19.6213 -42.5937 -0.000154695
rfingers 7.12502 -0 0
rthumb 6.70546 -72.467 -0.000150091
2243
root -0.724231 13.8137 -16.5982 -168.162 -26.4383 168.634
lfemur 11.5395 -1.27647 -15.3402
ltibia 31.8509 -0 0
lfoot -23.5966 36.7883 0.00133753
ltoes -44.1602 0 0
rfemur -72.4489 -23.6977 9.21843
rtibia 74.3477 -0 0
rfoot -6.9353 14.3648 -0.00153955
rtoes 4.29689 -0 0
lowerback 9.22191 1.88783 -13.3033
upperback -3.06787 0.496174 -2.03271
thorax -8.70953 0.818027 5.20401
lowerneck 0.898635 -12.0948 -12.354
upperneck 4.92839 -16.8286 10.314
head 3.23411 -8.45032 4.35085
lclavicle -1.963e-015 2.9768e-014 0
lhumerus -69.5124 -17.9165 103.964
lradius 102.011 -0 0
lwrist 60.8131 0 0
lhand -11.5563 62.1271 -0.0066954
lfingers 7.12502 -0 0
lthumb 14.3238 -103.233 0.139579
rclavicle -1.963e-015 2.9768e-014 0
rhumerus 49.1137 -9.83505 -58.6327
rradius 16.9466 -0 0
rwrist 34.5802 0 0
rhand -19.6339 -42.5764 -0.000131328
rfingers 7.12502 -0 0
rthumb 6.69328 -72.4501 -0.000126936
2244
root -0.730268 13.8049 -16.6188 -168.108 -26.3002 168.634
lfemur 11.6654 -1.20293 -15.3702
ltibia 31.6872 -0 0
lfoot -23.548 36.8268 0.00113168
ltoes -44.3622 0 0
rfemur -72.6246 -23.66 9.26967
rtibia 74.498 -0 0
rfoot -7.00899 14.4248 -0.00157151
rtoes 4.39236 -0 0
lowerback 9.07947 1.90877 -13.3674
upperback -3.06847 0.535281 -2.0523
thorax -8.63599 0.834134 5.21191
lowerneck 0.877425 -12.1079 -12.3426
upperneck 4.91306 -16.8448 10.3432
head 3.23636 -8.457 4.35548
lclavicle -1.963e-015 2.9768e-014 0
lhumerus -69.4967 -17.9637 103.98
lradius 101.982 -0 0
lwrist 60.8391 0 0
lhand -11.5077 62.0737 -0.0062058
lfingers 7.12502 -0 0
lthumb 14.3875 -102.05 0.132037
rclavicle -1.963e-015 2.9768e-014 0
rhumerus 49.1176 -9.80821 -58.678
rradius 16.9358 -0 0
rwrist 34.5488 0 0
rhand -19.6454 -42.5602 -0.000105822
rfingers 7.12502 -0 0
rthumb 6.68217 -72.4342 -0.000101849
2245
root -0.736306 13.796 -16.6394 -168.053 -26.1751 168.632
lfemur 11.783 -1.13554 -15.3981
ltibia 31.5285 -0 0
lfoot -23.5001 36.8602 0.000893249
ltoes -44.5533 0 0
rfemur -72.7914 -23.6287 9.31556
rtibia 74.6429 -0 0
rfoot -7.08161 14.4781 -0.00145939
rtoes 4.47786 -0 0
lowerback 8.94849 1.9279 -13.4286
upperback -3.06991 0.570772 -2.07084
thorax -8.56936 0.848891 5.21998
lowerneck 0.857953 -12.1202 -12.3315
upperneck 4.89657 -16.8596 10.3694
head 3.23762 -8.46314 4.35955
lclavicle -1.963e-015 2.9768e-014 0
lhumerus -69.483 -18.0083 103.996
lradius 101.954 -0 0
lwrist 60.8694 0 0
lhand -11.47 61.9981 -0.00531755
lfingers 7.12502 -0 0
lthumb 14.4485 -100.299 0.115804
rclavicle -1.963e-015 2.9768e-014 0
rhumerus 49.1218 -9.78529 -58.7156
rradius 16.927 -0 0
rwrist 34.5176 0 0
rhand -19.6557 -42.5454 -7.90441e-005
rfingers 7.12502 -0 0
rthumb 6.67218 -72.4197 -7.57073e-005
